<?xml version="1.0" encoding="utf-8"?>
<!-- Generator: Adobe Illustrator 23.0.1, SVG Export Plug-In . SVG Version: 6.00 Build 0)  -->
<svg version="1.1" xmlns="http://www.w3.org/2000/svg" xmlns:xlink="http://www.w3.org/1999/xlink" x="0px" y="0px"
	 viewBox="0 0 511.8 512" style="enable-background:new 0 0 511.8 512;" xml:space="preserve">
<style type="text/css">
	.st0{fill:#87E1FF;}
	.st1{fill:#FDFEFF;}
	.st2{fill:#FDFFFF;}
	.st3{fill:#FBFEFF;}
	.st4{fill:#FEFFFF;}
	.st5{fill:#FCFEFF;}
</style>
<g id="레이어_2">
	<circle class="st0" cx="256" cy="256" r="256"/>
</g>
<g id="Layer_1">
	<path class="st1" d="M356.6,366.3c-12-6-23.6-11.8-35.2-17.6c-7.5-3.7-15.3-0.8-19.3,6.4c-7.1,12.6-14.3,25.1-22.1,37.3
		c-6,9.3-17.3,12.8-28.1,9.6c-15.1-4.4-27.9-13.3-41.1-21.2c-7.7-4.6-15.3-9.3-23-13.8c-1.4-0.8-3.4-0.7-5.1-1
		c-0.1,0.5-0.2,1-0.3,1.5c2.4,1.2,5.1,2.1,7.3,3.6c1.1,0.8,2.4,3.6,1.9,4.1c-2.9,3.6-5.8,7.4-9.5,9.9c-3.4,2.3-7.5,0.9-10.6-1.9
		c-3.4-3.1-4.9-8.9-2.7-12.9c4.8-8.7,9.6-17.5,15.1-25.8c5-7.5,18-7.5,23-0.1c1.7,2.4,1.5,6.4,1.5,9.6c-0.1,3.2,1,4.7,3.9,4
		c13.3-2.8,23.7,3.6,34.3,10c10.6,6.4,10.8,6.2,17.1-4.1c2.4-3.9,4.6-8,7.5-12.9c-9.6,0.8-18.3,1.6-26.9,2.2
		c-9.3,0.6-18.6,1.1-27.9,1.7c-3,0.2-4.6-0.6-4.6-4.1c0-9.3-0.5-18.6-0.5-27.9c0-3.8-1-5.4-5.1-5.2c-7.8,0.3-15.7,0.2-23.5,0.2
		c-7.9-0.1-13.7-5.3-13.6-12.2c0.1-6.7,5.7-11.7,13.5-11.8c8-0.1,16-0.1,24,0.1c3.5,0.1,4.7-1.1,4.6-4.6c-0.2-8.2,0.1-16.3-0.1-24.5
		c-0.1-4.3,1.6-5.8,5.8-4.7c5,1.3,10,2.8,15,3.6c4,0.6,5.2,2.3,5.1,6.2c-0.2,21.2-0.1,42.3-0.1,63.5c0,6.4,0,6.2,6.4,5.7
		c13.9-1.2,27.9-2.1,41.8-3.2c18.4-1.5,36.8-3.1,55.2-4.6c15.4-1.2,30.9-2.2,46.3-3.4c7-0.5,13.9-1.3,20.9-1.8
		c2.5-0.2,3.5-1.2,3.4-3.7c-0.1-39.3-0.1-78.7-0.1-118c0-0.3-0.2-0.6-0.7-1.8c-3.7,2.8-7.2,5.4-10.6,8
		c-17.8,13.7-35.7,27.4-53.4,41.2c-2.2,1.7-3.8,1.7-6.2,0.4c-29.8-16.4-59.6-32.7-89.4-49c-3.9-2.1-7.8-4.2-12.7-6.7
		c0,8.2,0,15.4,0,22.7c0,7.2,0,7.2-6.8,5.6c-5.3-1.3-10.7-2.6-16-3.8c-3-0.6-4-2.3-3.9-5.3c0.2-6-0.2-12,0.1-18
		c0.2-4.1-1.4-5.1-5.2-5c-20.3,0.1-40.7,0-61,0c-7.8,0-12.2-4.1-12.3-11.2c0-7.1,4.6-11.4,12.1-11.5c20.3-0.3,40.6-0.6,60.9-0.7
		c4.1,0,5.5-1.3,5.4-5.4c-0.4-12.6,1.8-10.8-10.8-10.9c-10.3-0.1-20.7,0-31,0c-6.6,0-11.1-4.2-11.4-10.5
		c-0.3-5.8,4.5-12.2,10.2-12.2c21-0.1,42-0.1,62.9,0.5c15,0.5,29.9,2.1,44.8,3.2c21.1,1.6,42.1,3.2,63.2,4.7
		c15.3,1.1,30.5,2.2,45.8,3.3c11.4,0.8,22.9,1.8,34.3,2.6c3.7,0.2,4.6,1.9,4.6,5.4c-0.1,26,0,52,0.1,78c0,9.8,0,9.9,9.7,12
		c7.1,1.6,14.4,2.7,21.6,4.1c2.9,0.6,4.6-0.4,5.7-3.3c1.5-4.2,3.6-8.2,5.3-12.4c1.4-3.4,2.1-6.6-0.5-10.2c-2.2-3-0.7-6.2,2.4-8.6
		c2.3-1.8,4.4-3.8,6.2-6c4-5.1,11.4-7.2,17.6-4.5c6.5,2.8,10.3,9.2,8.1,15.8c-4.8,14.5-9.6,29.1-15.9,43
		c-5.8,12.9-15.7,16.9-29.6,14.6c-8.3-1.4-16.7-2.7-25-4.2c-4-0.7-5.7,0.2-5.6,4.7c0.2,20-0.1,40,0.2,60c0.1,4.6-1.5,6-5.9,6.3
		c-13.3,0.8-26.5,2-39.8,3.1c-0.6,0-1.2,0.3-3.2,0.7c4.6,2.5,8.1,4.1,11.3,6.3c7,4.7,14,9.5,20.6,14.7c6.1,4.8,8,11.9,7.7,19.3
		c-0.5,10.8-1.8,21.5-2.7,32.3c-0.2,3.2-1.6,4.6-4.7,5.4c-3.4,0.8-6.7,2.1-9.8,3.6c-1,0.5-1.5,2.2-2.2,3.4c1.3,0.1,2.8,0.7,3.9,0.3
		c7.6-2.7,14.9-3.7,21.5,2.4c2.9,2.7,4.5,5.7,3.2,9.8c-1.2,4-2.9,7.8-7.6,8.2c-6.9,0.5-14,1.3-20.8,0.5c-8.4-1-12.6-7.6-12.1-16.1
		c0.9-14.2,1.6-28.5,2.6-42.7c0.3-5.2-1.4-8.9-6.3-11.4C372.1,374.8,364.6,370.6,356.6,366.3 M299.3,149c-8-0.6-15.9-1.2-23.9-1.8
		c-10.8-0.8-21.6-1.4-32.4-2.3c-3.8-0.3-5.4,0.7-5.2,4.8c0.3,6.3,0.7,12.7-0.1,19c-1,9,1.9,14.1,10.4,18.5
		c30.6,15.9,60.6,32.9,91,49.3c1.5,0.8,4.4,0.7,5.7-0.3c21.2-16.2,42.2-32.5,63.2-48.9c1.5-1.1,2.6-3.5,2.7-5.4c0.3-7,0-14,0.2-21
		c0-2.7-0.9-3.8-3.7-4c-13.3-0.9-26.5-1.9-39.8-2.9C345.1,152.4,322.7,150.7,299.3,149 M489,216.1c-1.6-0.5-3.7-2-4.6-1.4
		c-3.6,2.1-6.9,4.9-10.2,7.5c-0.6,0.5-0.6,1.7-1.2,3.5c2.3-0.4,4.2-0.2,5.2-1c4.2-3.4,8.8-3.8,13.9-3.7c1.7,0,3.4-1.9,5.1-2.9
		c-0.2-0.6-0.5-1.2-0.7-1.8C494.3,216.1,492.1,216.1,489,216.1z"/>
	<path class="st2" d="M164.5,296.6c-1.6,5-4,8.4-9.7,7.7c-1.2-0.1-2.5,0.7-3.7,1.2c-5.3,2.5-10.4,2.2-15.1-1.3
		c-4.7-3.4-7.3-8.4-5.8-14c4.2-15.2,8.3-30.5,14-45.1c4.4-11.4,12.4-20.7,25.6-22.1c8.8-0.9,18-0.7,26.8,0.6c13.1,2,26,5.3,39,8.3
		c7.1,1.6,11.3,8.9,9.6,16.1c-1.8,7.7-8.5,12.5-15.7,11.1c-12.2-2.3-24.4-4.8-36.7-6.8c-5.7-0.9-11.6-1.3-17.4-1.1
		c-1.9,0-4.9,1.9-5.5,3.6c-3.2,8.4-5.9,16.9-8.4,25.6c-1,3.6-2.3,7.5,1.8,10.6C164.3,291.9,164.1,294.5,164.5,296.6z"/>
	<path class="st3" d="M151.9,355.9c-42.8,0-85.1,0-127.4,0.2c-4.8,0-7.1-1.8-8.4-5.8c-1.8-5.7-3.3-11.4-5.1-17.6
		c1.8-0.2,3.1-0.6,4.3-0.6c48.1,0,96.2,0,144.3,0.1c6.4,0,11.1,3.6,12.1,8.9c1.2,6.4-1.7,12-7.5,14.1c-1.4,0.5-2.9,0.7-4.4,0.7
		C157.4,356,154.9,355.9,151.9,355.9z"/>
	<path class="st1" d="M118.3,317c-17.1,0.3-33.7,0.6-50.3,0.7c-4.5,0-9-0.1-13.4-0.3c-5.9-0.4-10.6-5.8-10.5-11.9
		c0.1-6.2,5.3-11.3,12.2-11.3c18.1-0.1,36.3-0.1,54.4-0.1c1.3,0,2.7,0,4,0.1c6.7,0.2,11.2,3.4,12.2,8.7
		C128.1,309.4,125.3,314.3,118.3,317z"/>
	<path class="st4" d="M13.9,225.6c0-9.5,3.9-13.6,12.9-13.7c16.6-0.1,33.3,0,49.9,0.1c6.5,0,11.8,5.4,11.9,11.7
		c0.1,6.4-4.9,11.4-11.9,11.4c-15.9,0.2-31.9,0.3-47.8,0.3C20.3,235.5,16.5,233.1,13.9,225.6z"/>
	<path class="st5" d="M102.9,170.1c2.7,0,4.8-0.1,7,0c6.3,0.4,11.1,5.7,10.9,12c-0.2,5.9-4.8,10.6-11.1,10.6
		c-15.8,0.1-31.7,0.1-47.5-0.1C55.4,192.7,51,188.3,51,182c-0.1-6.8,4.5-11.7,11.5-11.8C75.8,170,89.1,170.1,102.9,170.1z"/>
	<path class="st5" d="M84.4,263.5c0.5-9.1,5-13.3,13.6-13.4c6.3,0,12.6-0.1,19,0c6.2,0.1,11.1,4.7,11.8,10.6
		c0.6,5.8-3.5,12.1-9.6,12.7c-8.6,0.8-17.3,0.8-25.9,0.1C88.3,273.2,85.6,268.8,84.4,263.5z"/>
	<path class="st5" d="M140.6,232.8c-8.5,4.9-17.3,4.2-25.7,1.4c-5.2-1.7-7.1-7.6-5.9-13.4c1-4.8,5.6-8.5,10.8-8.7
		c4-0.1,8,0.1,12-0.2c5.6-0.3,9.8,1.7,12,7C146,224,144.9,228.6,140.6,232.8z"/>
	<path class="st3" d="M18.7,294.2c7.4,0.2,11.6,2.8,13.4,8.1c1.7,5,0.3,9.1-3.5,12.6c-3,2.7-17.9,4.1-21,1.9c-0.9-0.6-1.8-1.7-2-2.8
		c-1-5.5-2-11.1-2.5-16.6c-0.1-0.9,2-2.9,3.2-3C10.2,293.9,14.2,294.2,18.7,294.2z"/>
	<path class="st3" d="M145.1,147.9c-3.9,4.8-8.4,7.3-14.2,5c-4.7-1.8-7.6-5.2-8-10.5c-0.4-5.2,1.9-9,6.4-11.5
		c4.6-2.5,9.1-1.9,13,1.3c3.9,3.2,5.4,7.5,4,12.5C146.2,145.8,145.7,146.7,145.1,147.9z"/>
	<path class="st3" d="M68.6,270.6c-9.4,6.3-19.8,2.2-20.5-7.5c-0.3-5.3,2.8-10.3,7.8-12.2c5.1-2,10.8-0.4,13.8,3.9
		C73.1,259.6,72.8,265.2,68.6,270.6z"/>
</g>
</svg>
